<svg width="20" height="18" viewBox="0 0 20 18" fill="none" xmlns="http://www.w3.org/2000/svg">
<path d="M14.6987 8.54046H18.0718C18.23 8.54055 18.3856 8.58107 18.5238 8.65817C18.662 8.73528 18.7782 8.84642 18.8614 8.98104C18.9445 9.11567 18.9919 9.26931 18.9991 9.4274C19.0062 9.58548 18.9728 9.74277 18.9021 9.88432L17.013 13.6633C16.9414 13.8065 16.834 13.9287 16.7012 14.0182C16.5684 14.1076 16.4147 14.1612 16.2551 14.1737C16.0954 14.1862 15.9353 14.1573 15.7902 14.0896C15.645 14.022 15.5199 13.918 15.4268 13.7877L13.4542 11.0294M1 15.0415H4.492C4.83816 15.0439 5.17811 14.9496 5.47349 14.769C5.76887 14.5885 6.00793 14.3291 6.1637 14.0199L7.50106 11.3266M1 16.899V13.1841M5.64361 5.7543H5.6529M15.0293 5.80352C15.2494 5.91371 15.4168 6.10678 15.4946 6.34031C15.5725 6.57383 15.5544 6.82871 15.4444 7.04894L12.5598 12.8172C12.5052 12.9263 12.4297 13.0236 12.3376 13.1036C12.2454 13.1835 12.1384 13.2444 12.0226 13.283C11.9069 13.3215 11.7847 13.3369 11.663 13.3282C11.5413 13.3195 11.4226 13.287 11.3135 13.2324L2.49524 8.81908C1.85473 8.49645 1.3681 7.93325 1.14183 7.2527C0.915566 6.57216 0.968087 5.82969 1.2879 5.18778L2.56954 2.59664C2.72928 2.27829 2.95017 1.99453 3.21959 1.76157C3.48901 1.5286 3.80168 1.35098 4.13975 1.23887C4.47782 1.12675 4.83467 1.08233 5.18991 1.10814C5.54514 1.13396 5.89182 1.22949 6.21013 1.3893L15.0293 5.80352Z" stroke="#ABB0B9" stroke-width="2" stroke-linecap="round" stroke-linejoin="round"/>
</svg>
