<svg width="20" height="20" viewBox="0 0 20 20" fill="none" xmlns="http://www.w3.org/2000/svg">
<g clip-path="url(#clip0_559_4462)">
<path d="M9.99935 1.6665C11.0937 1.6665 12.1773 1.88205 13.1884 2.30084C14.1994 2.71963 15.1181 3.33346 15.8919 4.10728C16.6657 4.8811 17.2796 5.79977 17.6983 6.81081C18.1171 7.82186 18.3327 8.90549 18.3327 9.99984M9.99935 1.6665V9.99984M9.99935 1.6665C5.39698 1.6665 1.66602 5.39746 1.66602 9.99984C1.66602 14.6022 5.39698 18.3332 9.99935 18.3332C14.6017 18.3332 18.3327 14.6022 18.3327 9.99984M9.99935 1.6665C14.6017 1.6665 18.3327 5.39747 18.3327 9.99984M18.3327 9.99984L9.99935 9.99984M18.3327 9.99984C18.3327 11.3149 18.0214 12.6113 17.4244 13.7831C16.8274 14.9548 15.9615 15.9687 14.8976 16.7416L9.99935 9.99984" stroke="#ABB0B9" stroke-width="2" stroke-linecap="round" stroke-linejoin="round"/>
</g>
<defs>
<clipPath id="clip0_559_4462">
<rect width="20" height="20" fill="white"/>
</clipPath>
</defs>
</svg>
