<svg width="77" height="24" viewBox="0 0 77 24" fill="none" xmlns="http://www.w3.org/2000/svg">
<path fill-rule="evenodd" clip-rule="evenodd" d="M60.0168 12.8211C60.0168 12.8211 59.7586 12.4582 58.6891 12.7008C57.6179 12.9531 57.1491 13.7888 57.1491 13.7888C56.3605 15.1468 54.9067 16.0802 53.2326 16.0802C50.7024 16.0802 48.682 13.9513 48.682 11.4445C48.682 8.9114 50.7024 6.80682 53.2326 6.80682C54.8087 6.80682 56.1383 7.58566 56.9533 8.81556C56.9533 8.81556 57.596 9.7754 58.048 10.0268C58.4952 10.2832 59.1469 10.4191 59.588 10.3252C60.0184 10.2284 60.2904 10.1461 60.0772 9.4083C59.2231 6.43414 56.5178 4.36377 53.2323 4.36377C49.2512 4.36377 46.1227 7.43402 46.1227 11.4445C46.1227 15.4549 49.2512 18.5319 53.2323 18.5319C56.4229 18.5319 58.9147 16.7161 59.9626 13.7858C60.2805 12.9376 60.0165 12.8211 60.0165 12.8211H60.0168ZM23.3146 4.36404C19.3423 4.36404 16.2281 7.43429 16.2281 11.4447C16.2281 15.4552 19.3423 18.5322 23.3146 18.5322C27.287 18.5322 30.3982 15.4561 30.3982 11.4447C30.3982 7.43331 27.2809 4.36404 23.3146 4.36404ZM23.3146 16.0804C20.7893 16.0804 18.7782 13.9516 18.7782 11.4447C18.7782 8.91166 20.7893 6.80708 23.3146 6.80708C25.8399 6.80708 27.844 8.91166 27.844 11.4447C27.844 13.9513 25.8331 16.0804 23.3146 16.0804ZM75.7344 11.4447C75.7344 15.4561 72.62 18.5322 68.6518 18.5322C64.6853 18.5322 61.5643 15.4552 61.5643 11.4447C61.5643 7.43429 64.6836 4.36404 68.6518 4.36404C72.62 4.36404 75.7344 7.43331 75.7344 11.4447ZM73.1846 11.4447C73.1846 8.91166 71.1742 6.80708 68.6518 6.80708C66.1306 6.80708 64.117 8.91166 64.117 11.4447C64.117 13.9516 66.1297 16.0804 68.6518 16.0804C71.1739 16.0804 73.1846 13.9513 73.1846 11.4447ZM42.0356 10.3187L35.115 10.2364C34.103 10.2219 34.003 9.58764 34.2986 8.97913C34.9505 7.64757 36.5346 6.68578 38.3585 6.70835C40.0804 6.7278 41.0535 7.68246 41.672 8.28915C41.709 8.32549 41.7448 8.36058 41.7793 8.39414C42.4206 9.02523 43.7684 9.222 44.3597 8.9255C44.6596 8.77774 44.6424 8.3677 44.3694 7.84725C43.2077 5.62912 40.7554 4.40117 38.2454 4.37084C36.1032 4.34536 33.675 5.3336 32.2127 7.60341C31.0029 9.48477 31.0689 12.6099 35.3528 12.6598L41.4314 12.7331C42.2445 12.7693 42.4563 13.1655 42.1697 13.8817C41.6486 15.1762 39.8422 16.2044 38.2719 16.1877C36.3347 16.1612 35.3661 15.1849 34.6322 14.4138C33.8832 13.634 32.5247 13.6233 32.0845 13.7886C31.6442 13.9521 31.8507 14.6232 32.0331 14.9794C33.1973 17.2473 35.7378 18.4997 38.1423 18.532C40.7013 18.5594 42.9937 17.3247 44.3316 15.1565C45.6753 12.9854 45.0947 10.3585 42.0358 10.3184L42.0356 10.3187ZM0.641602 11.4447C0.641602 7.43428 3.74922 4.36404 7.72351 4.36404C11.6932 4.36404 14.8117 7.43307 14.8117 11.4445C14.8117 15.4559 11.6932 18.532 7.72351 18.532C5.99088 18.532 4.42422 17.9421 3.20257 16.9578V23.4006C3.20257 23.4006 3.17758 23.9562 2.72968 24.0004C2.09908 23.9768 1.52745 23.5464 1.11206 22.9418C0.517618 22.0729 0.641602 20.8285 0.641602 20.8285V11.4447ZM3.17758 11.4292C3.17758 13.9836 5.21252 16.0559 7.72448 16.0559C10.2355 16.0559 12.2738 13.9824 12.2738 11.429C12.2738 8.87551 10.2364 6.8032 7.72448 6.8032C5.21252 6.8032 3.17758 8.87478 3.17758 11.4292Z" fill="white"/>
</svg>
